<svg width="43" height="43" viewBox="0 0 43 43" fill="none" xmlns="http://www.w3.org/2000/svg">
<circle cx="21.5" cy="21.5" r="21.5" fill="#6953D3" fill-opacity="0.1"/>
<path d="M15.5138 27.4331C15.6097 27.4715 15.6959 27.4906 15.7917 27.4906H25.6338C26.0267 27.4906 26.3526 27.1648 26.3526 26.7719C26.3526 26.379 26.0267 26.0531 25.6338 26.0531H17.5263L29.7163 13.8631C29.9942 13.5852 29.9942 13.1252 29.7163 12.8473C29.5811 12.7136 29.3986 12.6387 29.2084 12.6387C29.0183 12.6387 28.8358 12.7136 28.7005 12.8473L16.5105 25.0373V16.9298C16.5105 16.5369 16.1847 16.2111 15.7917 16.2111C15.3988 16.2111 15.073 16.5369 15.073 16.9298V26.7719C15.073 26.8677 15.0922 26.954 15.1305 27.0498C15.1976 27.2223 15.3413 27.3661 15.5138 27.4331ZM30.6459 30.3647H14.3542C13.9613 30.3647 13.6355 30.6905 13.6355 31.0834C13.6355 31.4763 13.9613 31.8022 14.3542 31.8022H30.6459C31.0388 31.8022 31.3647 31.4763 31.3647 31.0834C31.3647 30.6905 31.0388 30.3647 30.6459 30.3647Z" fill="#6953D3"/>
</svg>
